# Blender v2.90.1 OBJ File: 'crate.blend'
# www.blender.org
v -0.250000 0.000000 0.250000
v -0.250000 0.500000 0.250000
v -0.250000 0.000000 -0.250000
v -0.250000 0.500000 -0.250000
v 0.250000 0.000000 0.250000
v 0.250000 0.500000 0.250000
v 0.250000 0.000000 -0.250000
v 0.250000 0.500000 -0.250000
vt 0.500000 0.312500
vt 0.375000 0.250000
vt 0.500000 0.250000
vt 0.375000 0.312500
vt 0.250000 0.250000
vt 0.250000 0.312500
vt 0.125000 0.250000
vt 0.125000 0.312500
vt 0.000000 0.250000
vt 0.250000 0.312500
vt 0.125000 0.375000
vt 0.125000 0.312500
vt 0.000000 0.375000
vt 0.125000 0.375000
vt 0.000000 0.312500
vt 0.250000 0.375000
vn -1.0000 0.0000 0.0000
vn 0.0000 0.0000 -1.0000
vn 1.0000 0.0000 0.0000
vn 0.0000 0.0000 1.0000
vn 0.0000 -1.0000 0.0000
vn 0.0000 1.0000 0.0000
s off
f 2/1/1 3/2/1 1/3/1
f 4/4/2 7/5/2 3/2/2
f 8/6/3 5/7/3 7/5/3
f 6/8/4 1/9/4 5/7/4
f 7/10/5 1/11/5 3/12/5
f 4/13/6 6/8/6 8/14/6
f 2/1/1 4/4/1 3/2/1
f 4/4/2 8/6/2 7/5/2
f 8/6/3 6/8/3 5/7/3
f 6/8/4 2/15/4 1/9/4
f 7/10/5 5/16/5 1/11/5
f 4/13/6 2/15/6 6/8/6
