# Blender v2.79 (sub 0) OBJ File: ''
# www.blender.org
o Cube
v 0.035457 -0.051774 -0.035457
v 0.035457 -0.051774 0.035457
v -0.035457 -0.051774 0.035457
v -0.035457 -0.051774 -0.035457
v 0.044032 0.036290 -0.044032
v 0.044032 0.036290 0.044032
v -0.044032 0.036290 0.044032
v -0.044032 0.036290 -0.044032
v 0.044032 0.093097 -0.044032
v 0.044032 0.093097 0.044032
v -0.044032 0.093097 0.044032
v -0.044032 0.093097 -0.044032
v 0.053685 0.402824 -0.077240
v 0.053685 0.402824 0.077240
v -0.053685 0.402824 0.077240
v -0.053685 0.402824 -0.077240
vn 0.0000 -1.0000 0.0000
vn 0.0000 1.0000 0.0000
vn 0.9953 -0.0969 0.0000
vn -0.0000 -0.0969 0.9953
vn -0.9953 -0.0969 -0.0000
vn 0.0000 -0.0969 -0.9953
vn 0.9995 -0.0312 0.0000
vn -0.0000 -0.1066 0.9943
vn -0.9995 -0.0312 -0.0000
vn 0.0000 -0.1066 -0.9943
s off
f 2//1 4//1 1//1
f 8//2 6//2 5//2
f 5//3 2//3 1//3
f 6//4 3//4 2//4
f 3//5 8//5 4//5
f 1//6 8//6 5//6
f 2//1 3//1 4//1
f 8//2 7//2 6//2
f 5//3 6//3 2//3
f 6//4 7//4 3//4
f 3//5 7//5 8//5
f 1//6 4//6 8//6
f 10//1 12//1 9//1
f 16//2 14//2 13//2
f 13//7 10//7 9//7
f 14//8 11//8 10//8
f 15//9 12//9 11//9
f 9//10 16//10 13//10
f 10//1 11//1 12//1
f 16//2 15//2 14//2
f 13//7 14//7 10//7
f 14//8 15//8 11//8
f 15//9 16//9 12//9
f 9//10 12//10 16//10
