<?xml version="1.0" encoding="UTF-8" standalone="no"?>
<svg
   xmlns:dc="http://purl.org/dc/elements/1.1/"
   xmlns:cc="http://creativecommons.org/ns#"
   xmlns:rdf="http://www.w3.org/1999/02/22-rdf-syntax-ns#"
   xmlns:svg="http://www.w3.org/2000/svg"
   xmlns="http://www.w3.org/2000/svg"
   xml:space="preserve"
   style="enable-background:new 0 0 1840 512;"
   viewBox="0 0 1840 512"
   y="0px"
   x="0px"
   id="Layer_1"
   version="1.1"><metadata
   id="metadata4570"><rdf:RDF><cc:Work
       rdf:about=""><dc:format>image/svg+xml</dc:format><dc:type
         rdf:resource="http://purl.org/dc/dcmitype/StillImage" /><dc:title></dc:title></cc:Work></rdf:RDF></metadata><defs
   id="defs4568" />
<style
   id="style4545"
   type="text/css">
	.st0{fill:#FFFFFF;}
	.st1{fill:url(#SVGID_1_);}
	.st2{fill:url(#SVGID_2_);}
</style>


<g
   id="g5227"
   style="opacity:0.95999995"
   transform="matrix(3.4688293,0,0,3.4688293,452.69905,-212.95436)"><g
     style="display:inline;fill:#000000"
     id="layer2"
     transform="matrix(0.78188234,0,0,0.78188234,0.14578831,74.61323)"><path
       transform="scale(0.26458333)"
       id="path3729"
       d="m 208.44531,136.90625 c -27.55074,-0.46318 -76.46191,9.91947 -87.33746,10.82576 1.67222,17.0292 -22.606702,73.58725 -9.5975,94.50566 6.04374,-8.17035 23.60221,-39.52542 42.19844,-43.3244 8.78311,23.91608 13.61983,55.80443 15.2998,82.38513 3.05951,48.4077 22.54256,194.50523 22.54256,194.50523 11.83341,-24.3649 19.19891,-35.96484 35.08166,-49.09465 10.84228,-8.8033 28.43642,-18.35787 58.89063,-31.97851 46.23971,-20.68072 59.83921,-66.97034 55.23223,-113.10372 -4.60698,-46.13338 -26.34096,-90.50678 -58.62013,-117.96094 -22.04126,-18.74658 -48.56693,-26.33719 -73.69023,-26.75956 z m 3.98497,72.92636 c 35.35065,-0.71104 61.27574,26.01404 65.31172,55.57754 5.55078,40.65936 -17.44316,75.46253 -49.22617,99.7537 -2.40365,-44.63072 -8.5922,-102.1338 -16.08555,-155.33124 z"
       style="display:inline;fill:#000000;fill-opacity:1;stroke:none;stroke-width:0.99999994px;stroke-linecap:butt;stroke-linejoin:miter;stroke-opacity:1" /><path
       id="path3736"
       d="m 82.540605,33.085527 c -1.39518,17.391876 9.527041,24.44508 12.481805,36.223992 0.959867,4.793908 2.865575,15.24339 3.134628,22.862782 0.219438,6.214358 -0.470862,9.852659 -5.121086,12.701349 4.612953,1.08726 26.637748,-2.22601 33.397128,-2.76037 -1.02998,-3.468233 1.86567,-17.090459 -1.47598,-20.563031 -4.02891,2.891552 -1.83777,10.710195 -9.45679,12.451292 -3.71698,0.849403 -6.43917,-5.042286 -7.0882,-7.777548 -1.26338,-5.324349 -0.70805,-12.805045 5.92043,-8.885486 2.05629,-1.846012 -0.49263,-12.88468 -1.6327,-14.184619 -2.75507,0.906063 -2.68138,6.40428 -5.59766,5.492493 -1.67061,-0.522321 -2.60919,-3.958379 -2.2498,-6.454048 0.48843,-3.391759 4.67182,-3.875785 6.77539,-3.801812 8.35083,-0.126985 8.81271,5.067072 13.66664,11.589429 1.32059,-3.881542 0.6958,-20.235545 -1.17702,-24.913545 C 113.9078,42.171936 109.07518,44.922286 104.38158,45.445004 91.980155,46.82613 87.048998,35.411952 82.540605,33.085527 Z"
       style="fill:#000000;fill-opacity:1;stroke:none;stroke-width:0.26458332px;stroke-linecap:butt;stroke-linejoin:miter;stroke-opacity:1" /><path
       id="path3741"
       d="m 125.57604,43.764512 c 7.45608,12.8761 7.80015,40.397734 6.66527,58.567568 14.87158,0.85198 21.38358,-1.37863 32.60568,-1.35916 1.01096,-3.436989 4.45645,-20.676194 -0.56174,-23.172138 -3.35929,5.335027 0.10801,11.28852 -10.32858,14.159998 -2.67373,0.301059 -7.19987,-0.496966 -7.43935,-2.906867 -0.85151,-8.569017 0.66411,-36.60579 -3.80489,-45.060032 -1.98884,0.551154 -5.68427,-0.347253 -9.07674,-0.589623 -3.11909,-0.222838 -5.93041,0.222574 -8.05965,0.360254 z"
       style="fill:#000000;fill-opacity:1;stroke:none;stroke-width:0.26458332px;stroke-linecap:butt;stroke-linejoin:miter;stroke-opacity:1" /><path
       id="path3746"
       d="m 179.9447,42.081722 c -7.17079,-1.807295 -16.51316,-0.912526 -25.12192,-0.400288 -2.70662,0.06707 -3.2051,2.711363 -0.70775,3.757094 1.65526,0.693119 6.55341,4.216351 8.76141,8.894736 3.78616,8.022264 12.60079,28.314962 15.66262,39.860095 0.43505,1.640432 -2.04893,5.262461 -2.22497,5.381466 6.72557,1.641235 15.10399,0.170546 20.81697,-0.48971 -4.61882,-5.415081 1.67176,-17.892781 4.10342,-24.782793 3.02812,-8.580093 3.30011,-15.410029 6.01315,-22.562398 0.52094,-1.373343 0.9631,-3.330397 3.35312,-3.933078 1.23784,-0.840151 2.55806,-3.33713 0.22748,-3.984067 -6.89984,-1.915302 -14.29948,-1.536321 -21.24876,-2.003804 -2.71079,-0.182356 -2.3455,2.791025 0.23992,4.005244 2.34095,1.099406 1.83067,8.45245 1.25483,11.34375 -0.92734,4.609256 -2.50456,14.267308 -3.72489,19.923363 -2.97444,-10.286538 -8.41589,-20.371527 -9.22145,-27.274927 -0.0241,-1.96864 0.76963,-2.899902 2.15368,-3.558696 2.44533,-1.163947 2.28922,-3.514121 -0.33686,-4.175987 z"
       style="fill:#000000;fill-opacity:1;stroke:none;stroke-width:0.26458332px;stroke-linecap:butt;stroke-linejoin:miter;stroke-opacity:1" /><path
       transform="scale(0.26458333)"
       id="path3756"
       d="m 903.40082,103.87721 c 13.29531,46.78363 50.64868,61.66455 54.06228,95.33569 4.69504,46.31096 2.48551,127.82134 -10.25001,196.76461 18.14504,3.68883 35.04768,10.40425 46.13005,38.65544 11.27746,-27.31414 13.10556,-109.83585 17.82736,-134.1566 33.5646,34.73666 43.674,80.33969 85.8483,118.31622 41.4647,8.8657 72.2224,33.92293 96.0267,54.42367 6.6974,-36.99043 -113.3519,-155.32264 -125.5936,-192.65257 46.4963,3.71214 77.8494,-28.95704 75.4602,-69.79219 -4.6731,-79.87262 -97.186,-83.56511 -158.7523,-84.26699 -45.91644,-0.52346 -81.20126,-23.89749 -80.75898,-22.62728 z m 115.82578,69.32396 c 10.9207,-0.16483 27.0759,2.44418 39.0429,8.53125 11.967,6.08707 19.3033,13.91496 18.293,27.37696 -0.7327,9.76235 -4.4124,15.06981 -10.0273,19.14257 -5.615,4.07277 -13.6494,6.46215 -22.0215,7.46289 -11.6924,1.39761 -21.304,0.35435 -27.3828,-0.51562 0.5539,-20.83117 -0.5419,-45.34865 -2.4024,-61.62695 1.415,-0.15799 2.7752,-0.34509 4.4981,-0.3711 z"
       style="fill:#000000;fill-opacity:1;stroke:none;stroke-width:0.99999994px;stroke-linecap:butt;stroke-linejoin:miter;stroke-opacity:1" /><path
       id="path3751"
       d="m 255.2644,28.543587 c -3.01671,24.67365 -26.47806,14.063117 -41.25708,13.432373 1.78399,11.828311 2.0431,24.11704 1.31464,33.916001 -0.73852,9.93416 -0.75285,19.568177 -8.34498,23.287929 9.93484,2.43854 24.48834,0.319418 37.57298,2.61852 1.61162,-6.096247 2.43864,-15.720902 1.14453,-20.664363 -1.76874,0.333574 -3.48797,1.648759 -4.83018,4.941093 -4.28288,10.505517 -13.79653,5.355367 -14.74374,1.088612 -0.9745,-4.389697 0.0487,-11.725712 4.92435,-11.208674 0.7303,0.07744 1.6966,0.731165 2.43493,2.564453 0.42687,0.479518 1.69613,0.635448 2.15286,-0.282072 1.50344,-3.02021 1.88025,-8.725933 0.13744,-12.937602 -0.60256,-1.456152 -1.39571,-0.741911 -2.63446,1.848477 -0.69646,1.621516 -4.05895,2.746225 -4.94182,1.444901 -0.43475,-0.640814 -1.15424,-3.050631 -1.13712,-6.550574 0.01,-1.946835 0.45785,-4.043431 1.1692,-4.666633 1.92099,-1.682934 8.34855,-1.221266 11.2096,-0.293997 1.96763,0.655102 2.43329,1.577156 3.20312,3.113281 0.38492,0.768063 0.76956,1.674641 1.41992,2.615235 0.65037,0.940594 1.66422,1.915815 3.03516,2.427734 4.28704,0.306362 1.17002,-6.066611 2.62469,-6.742702 13.36022,-5.790526 17.38904,-17.934825 5.54596,-29.951992 z"
       style="fill:#000000;fill-opacity:1;stroke:none;stroke-width:0.26458332px;stroke-linecap:butt;stroke-linejoin:miter;stroke-opacity:1" /></g><path
     d="m 64.63829,161.96111 h -6.688138 v 12.0568 h 6.688138 v -2.0246 h -4.339167 v -3.29009 h 4.157398 v -2.02433 h -4.15634 v -2.69346 h 4.339167 v -2.02432 z m 19.822054,12.0568 v -8.06159 l 7.338748,8.06185 h 1.626922 V 161.96111 H 91.07625 v 8.04333 l -7.338748,-8.04333 h -1.626923 v 12.0568 z m 33.019996,-4.4286 h 3.10886 a 3.2133646,3.2133646 0 0 1 -1.13771,1.84362 4.0182271,4.0182271 0 0 1 -2.36776,0.7231 3.7091938,3.7091938 0 0 1 -2.6752,-1.03028 c -0.50615,-0.48816 -1.19301,-1.44622 -1.19301,-3.05488 a 4.4934188,4.4934188 0 0 1 1.211,-3.18135 4.0745834,4.0745834 0 0 1 2.78368,-1.06654 3.9507584,3.9507584 0 0 1 1.69916,0.37968 3.2890354,3.2890354 0 0 1 1.40996,1.42875 l 2.04259,-1.10252 a 5.6784875,5.6784875 0 0 0 -2.25955,-2.2053 5.836973,5.836973 0 0 0 -2.78368,-0.63262 c -2.33177,0 -3.85021,0.92181 -4.75403,1.84361 a 6.1581771,6.1581771 0 0 0 -1.77139,4.48284 c 0,2.71145 1.37372,4.22989 1.78938,4.64555 1.31974,1.31948 2.87417,1.62666 4.37436,1.62666 1.50018,0 3.03688,-0.34396 4.28413,-1.59067 1.66291,-1.64465 1.77139,-4.17539 1.77139,-4.98872 v -0.14473 h -5.5298 v 2.02459 z m 22.89757,-7.6282 v 12.0568 h 2.34977 v -12.0568 z m 22.6404,12.0568 v -8.06159 l 7.33875,8.06185 h 1.62586 v -12.05706 h -2.34976 v 8.04333 l -7.33875,-8.04333 h -1.62692 v 12.0568 h 2.35003 z m 33.59732,-12.0568 h -6.68708 v 12.0568 h 6.68708 v -2.0246 h -4.33917 v -3.29009 h 4.1574 v -2.02433 h -4.15528 v -2.69346 h 4.33917 v -2.02432 z"
     class="cls-1"
     data-name="ENGINE copy"
     id="ENGINE_copy-7"
     style="fill:#000000;fill-rule:evenodd;stroke-width:0.26458335" /></g></svg>