# Blender v2.78 (sub 0) OBJ File: 'railing.blend'
# www.blender.org
o Plane.003
v -0.500000 -0.000000 -0.500000
v 0.500000 -0.000000 0.500000
v -0.500000 -0.000000 0.500000
v 0.500000 0.000000 -0.500000
v 0.500000 0.500000 0.500000
v -0.500000 0.500000 0.500000
v 0.500000 0.500000 -0.500000
v -0.500000 0.500000 -0.500000
v 0.500000 0.250000 0.500000
v -0.500000 0.250000 0.500000
v -0.250000 0.500000 -0.250000
v -0.250000 0.250000 -0.250000
v 0.250000 0.250000 -0.250000
v 0.250000 0.500000 -0.250000
v -0.250000 0.500000 0.250000
v 0.250000 0.250000 0.250000
v -0.250000 0.250000 0.250000
v 0.250000 0.500000 0.250000
v 0.500000 0.250000 -0.500000
v -0.500000 0.250000 -0.500000
v -0.500000 -0.000000 -0.500000
v 0.500000 -0.000000 0.500000
v -0.500000 -0.000000 0.500000
v 0.500000 0.000000 -0.500000
v 0.500000 0.250000 0.500000
v -0.500000 0.250000 0.500000
v 0.500000 0.250000 -0.500000
v -0.500000 0.250000 -0.500000
v -0.250000 0.500000 -0.250000
v 0.250000 0.500000 -0.250000
v -0.250000 0.500000 0.250000
v 0.250000 0.500000 0.250000
vt 0.5000 0.3750
vt 0.0000 0.5000
vt 0.0000 0.3750
vt 0.0000 0.3750
vt 0.5000 0.5000
vt 0.0000 0.5000
vt 0.5000 0.3750
vt 0.0000 0.5000
vt 0.0000 0.3750
vt 0.5000 0.3750
vt 0.0000 0.5000
vt 0.0000 0.3750
vt 0.5000 0.2500
vt 0.0000 0.2500
vt 0.5000 0.2500
vt 0.0000 0.2500
vt 0.3750 0.6250
vt 0.5000 0.5000
vt 0.3750 0.8750
vt 0.5000 1.0000
vt 0.1250 0.8750
vt 0.0000 1.0000
vt 0.1250 0.6250
vt 0.5000 0.2500
vt 0.0000 0.2500
vt 0.5000 0.2500
vt 0.0000 0.2500
vt 0.1250 0.3750
vt 0.3750 0.5000
vt 0.1250 0.5000
vt 0.1250 0.3750
vt 0.3750 0.5000
vt 0.1250 0.5000
vt 0.3750 0.6250
vt 0.0000 0.5000
vt 0.1250 0.6250
vt 0.3750 0.3750
vt 0.1250 0.5000
vt 0.1250 0.3750
vt 0.3750 0.3750
vt 0.1250 0.5000
vt 0.1250 0.3750
vt 0.3750 0.8750
vt 0.5000 0.5000
vt 0.1250 0.8750
vt 0.5000 1.0000
vt 0.0000 1.0000
vt 0.0000 0.3750
vt 0.5000 0.2500
vt 0.0000 0.2500
vt 0.0000 0.3750
vt 0.5000 0.2500
vt 0.0000 0.2500
vt 0.0000 0.3750
vt 0.5000 0.2500
vt 0.0000 0.2500
vt 0.0000 0.3750
vt 0.5000 0.2500
vt 0.0000 0.2500
vt 0.3750 0.6250
vt 0.1250 0.8750
vt 0.3750 0.8750
vt 0.5000 0.5000
vt 0.5000 0.3750
vt 0.5000 0.5000
vt 0.3750 0.3750
vt 0.3750 0.3750
vt 0.3750 0.5000
vt 0.3750 0.5000
vt 0.5000 0.3750
vt 0.5000 0.3750
vt 0.5000 0.3750
vt 0.5000 0.3750
vt 0.1250 0.6250
vn 1.0000 -0.0000 0.0000
vn 0.0000 -0.0000 -1.0000
vn -1.0000 -0.0000 -0.0000
vn 0.0000 -0.0000 1.0000
vn 0.0000 1.0000 0.0000
vn -0.0000 -1.0000 -0.0000
s off
f 19/1/1 5/2/1 9/3/1
f 19/4/2 8/5/2 7/6/2
f 10/7/3 8/8/3 20/9/3
f 9/10/4 6/11/4 10/12/4
f 2/13/4 10/12/4 3/14/4
f 3/15/3 20/9/3 1/16/3
f 18/17/5 6/11/5 5/18/5
f 14/19/5 5/18/5 7/20/5
f 11/21/5 7/20/5 8/22/5
f 15/23/5 8/22/5 6/11/5
f 1/24/2 19/4/2 4/25/2
f 4/26/1 9/3/1 2/27/1
f 12/28/4 14/29/4 11/30/4
f 13/31/3 18/32/3 14/33/3
f 16/34/6 10/35/6 17/36/6
f 17/37/2 18/38/2 16/39/2
f 12/40/1 15/41/1 17/42/1
f 13/43/6 9/44/6 16/34/6
f 12/45/6 19/46/6 13/43/6
f 17/36/6 20/47/6 12/45/6
f 26/48/2 22/49/2 23/50/2
f 28/51/1 23/52/1 21/53/1
f 27/54/4 21/55/4 24/56/4
f 25/57/3 24/58/3 22/59/3
f 11/21/5 18/17/5 14/19/5
f 32/60/6 29/61/6 30/62/6
f 19/1/1 7/63/1 5/2/1
f 19/4/2 20/64/2 8/5/2
f 10/7/3 6/65/3 8/8/3
f 9/10/4 5/18/4 6/11/4
f 2/13/4 9/10/4 10/12/4
f 3/15/3 10/7/3 20/9/3
f 18/17/5 15/23/5 6/11/5
f 14/19/5 18/17/5 5/18/5
f 11/21/5 14/19/5 7/20/5
f 15/23/5 11/21/5 8/22/5
f 1/24/2 20/64/2 19/4/2
f 4/26/1 19/1/1 9/3/1
f 12/28/4 13/66/4 14/29/4
f 13/31/3 16/67/3 18/32/3
f 16/34/6 9/44/6 10/35/6
f 17/37/2 15/68/2 18/38/2
f 12/40/1 11/69/1 15/41/1
f 13/43/6 19/46/6 9/44/6
f 12/45/6 20/47/6 19/46/6
f 17/36/6 10/35/6 20/47/6
f 26/48/2 25/70/2 22/49/2
f 28/51/1 26/71/1 23/52/1
f 27/54/4 28/72/4 21/55/4
f 25/57/3 27/73/3 24/58/3
f 11/21/5 15/23/5 18/17/5
f 32/60/6 31/74/6 29/61/6
