# Blender v2.78 (sub 0) OBJ File: 'railing.blend'
# www.blender.org
o Power_Box_Cube.003
v -0.375000 0.000000 0.125000
v -0.375000 0.000000 0.000000
v 0.375000 0.000000 0.000000
v 0.375000 0.000000 0.125000
v -0.375000 0.875000 0.125000
v -0.375000 0.875000 0.000000
v 0.375000 0.875000 0.000000
v 0.375000 0.875000 0.125000
vt 0.4375 0.9375
vt 0.3750 0.5000
vt 0.3750 0.9375
vt 0.3750 0.9375
vt 0.4375 0.5000
vt 0.4375 0.9375
vt 0.0000 0.9375
vt 0.3750 0.5000
vt 0.0000 0.4375
vt 0.0000 0.5000
vt 0.3750 1.0000
vt 0.4375 0.5000
vt 0.3750 0.4375
vt 0.0000 1.0000
vn -1.0000 0.0000 0.0000
vn 1.0000 0.0000 0.0000
vn 0.0000 0.0000 1.0000
vn 0.0000 -1.0000 0.0000
vn 0.0000 1.0000 0.0000
s off
f 6/1/1 1/2/1 5/3/1
f 8/4/2 3/5/2 7/6/2
f 5/7/3 4/8/3 8/4/3
f 2/9/4 4/8/4 1/10/4
f 7/11/5 5/7/5 8/4/5
f 6/1/1 2/12/1 1/2/1
f 8/4/2 4/8/2 3/5/2
f 5/7/3 1/10/3 4/8/3
f 2/9/4 3/13/4 4/8/4
f 7/11/5 6/14/5 5/7/5
