# Blender v2.78 (sub 0) OBJ File: 'railing.blend'
# www.blender.org
o Power_Box.003_Cube.009
v -0.500000 0.000000 0.125000
v -0.500000 0.000000 0.000000
v 0.500000 0.000000 0.000000
v 0.500000 0.000000 0.125000
v -0.500000 0.750000 0.125000
v -0.500000 0.750000 0.000000
v 0.500000 0.750000 0.000000
v 0.500000 0.750000 0.125000
vt 0.3750 0.4375
vt 0.4375 0.0625
vt 0.4375 0.4375
vt 0.9375 0.4375
vt 1.0000 0.0625
vt 1.0000 0.4375
vt 0.9375 0.0625
vt 0.4375 0.0000
vt 0.9375 0.5000
vt 0.3750 0.0625
vt 0.9375 0.0000
vt 0.4375 0.5000
vn -1.0000 0.0000 0.0000
vn 1.0000 0.0000 0.0000
vn 0.0000 0.0000 1.0000
vn 0.0000 -1.0000 0.0000
vn 0.0000 1.0000 0.0000
s off
f 6/1/1 1/2/1 5/3/1
f 8/4/2 3/5/2 7/6/2
f 5/3/3 4/7/3 8/4/3
f 2/8/4 4/7/4 1/2/4
f 7/9/5 5/3/5 8/4/5
f 6/1/1 2/10/1 1/2/1
f 8/4/2 4/7/2 3/5/2
f 5/3/3 1/2/3 4/7/3
f 2/8/4 3/11/4 4/7/4
f 7/9/5 6/12/5 5/3/5
