# Blender v2.78 (sub 0) OBJ File: 'railing.blend'
# www.blender.org
o Rail_32_Corner_Cube.002
v 0.062500 0.375000 0.250000
v -0.062500 0.375000 0.250000
v 0.250000 0.375000 -0.062500
v 0.250000 0.375000 0.062500
v 0.062500 0.500000 0.250000
v -0.062500 0.500000 0.250000
v 0.250000 0.500000 -0.062500
v 0.250000 0.500000 0.062500
v 0.250000 0.375000 -0.000000
v -0.000000 0.375000 0.250000
v -0.000000 0.375000 0.250000
v 0.250000 0.375000 -0.000000
v -0.062500 0.500000 -0.062500
v -0.062500 0.375000 -0.062500
v 0.062500 0.500000 0.062500
v 0.062500 0.375000 0.062500
v -0.000000 0.375000 -0.000000
v -0.000000 0.375000 -0.000000
v -0.000000 0.000000 0.250000
v 0.250000 -0.000000 -0.000000
v 0.000000 0.000000 0.000000
v -0.000000 0.375000 0.250000
v 0.250000 0.375000 -0.000000
v -0.000000 0.375000 -0.000000
v -0.000000 0.000000 0.250000
v 0.250000 -0.000000 -0.000000
v 0.000000 0.000000 0.000000
v 0.500000 0.375000 -0.062500
v 0.500000 0.375000 0.062500
v 0.500000 0.500000 -0.062500
v 0.500000 0.500000 0.062500
v 0.250000 0.500000 -0.062500
v 0.250000 0.375000 -0.062500
v 0.250000 0.500000 0.062500
v 0.250000 0.375000 0.062500
v 0.500000 0.375000 -0.000000
v 0.250000 0.375000 -0.000000
v 0.500000 -0.000000 -0.000000
v 0.250000 0.000000 0.000000
v 0.500000 0.375000 -0.062500
v 0.500000 0.375000 0.062500
v 0.250000 0.375000 -0.062500
v 0.250000 0.375000 0.062500
v 0.500000 0.375000 -0.000000
v 0.250000 0.375000 -0.000000
v 0.500000 -0.000000 -0.000000
v 0.250000 0.000000 0.000000
v 0.062500 0.375000 0.500000
v -0.062500 0.375000 0.500000
v 0.062500 0.500000 0.500000
v -0.062500 0.500000 0.500000
v 0.062500 0.500000 0.250000
v 0.062500 0.375000 0.250000
v -0.062500 0.500000 0.250000
v -0.062500 0.375000 0.250000
v 0.000000 0.375000 0.500000
v 0.000000 0.375000 0.250000
v 0.000000 -0.000000 0.500000
v 0.000000 0.000000 0.250000
v 0.062500 0.375000 0.500000
v -0.062500 0.375000 0.500000
v 0.062500 0.375000 0.250000
v -0.062500 0.375000 0.250000
v 0.000000 0.375000 0.500000
v 0.000000 0.375000 0.250000
v 0.000000 -0.000000 0.500000
v 0.000000 0.000000 0.250000
vt 0.5000 0.6250
vt 0.1875 0.5000
vt 0.1875 0.6250
vt 0.0000 0.6250
vt 0.1875 0.5000
vt 0.1875 0.6250
vt 0.3125 0.7500
vt 0.5000 0.8750
vt 0.5000 0.7500
vt 0.0000 0.7500
vt 0.0000 0.1250
vt 0.2500 0.5000
vt 0.2500 0.1250
vt 0.3125 0.6250
vt 0.0000 0.5000
vt 0.0000 0.6250
vt 0.3125 0.6250
vt 0.5000 0.5000
vt 0.5000 0.6250
vt 0.0156 0.8750
vt 0.2031 0.7500
vt 0.0156 0.7500
vt 0.5000 0.7500
vt 0.5000 0.5000
vt 0.5000 0.1250
vt 0.2500 0.5000
vt 0.0000 0.1250
vt 0.2500 0.1250
vt 0.5000 0.5000
vt 0.5000 0.1250
vt 0.5000 0.6250
vt 0.3125 0.5000
vt 0.3125 0.6250
vt 0.1250 1.0000
vt 0.0000 0.8750
vt 0.0000 1.0000
vt 0.3125 0.6250
vt 0.5000 0.5000
vt 0.5000 0.6250
vt 0.5000 0.7500
vt 0.5000 0.5000
vt 0.2500 0.1250
vt 0.5000 0.1250
vt 0.3125 0.8750
vt 0.5000 0.7500
vt 0.3125 0.7500
vt 0.2500 0.1250
vt 0.5000 0.5000
vt 0.5000 0.1250
vt 0.5000 0.6250
vt 0.3125 0.5000
vt 0.3125 0.6250
vt 0.1250 1.0000
vt 0.0000 0.8750
vt 0.0000 1.0000
vt 0.3125 0.6250
vt 0.5000 0.5000
vt 0.5000 0.6250
vt 0.5000 0.7500
vt 0.5000 0.5000
vt 0.2500 0.1250
vt 0.5000 0.1250
vt 0.3125 0.8750
vt 0.5000 0.7500
vt 0.3125 0.7500
vt 0.2500 0.1250
vt 0.5000 0.5000
vt 0.5000 0.1250
vt 0.5000 0.5000
vt 0.0000 0.5000
vt 0.1875 0.8750
vt 0.3125 0.7500
vt 0.0000 0.5000
vt 0.3125 0.5000
vt 0.3125 0.5000
vt 0.3281 0.8750
vt 0.1875 0.7500
vt 0.0000 0.5000
vt 0.5000 0.5000
vt 0.1250 0.8750
vt 0.3125 0.5000
vt 0.3125 0.7500
vt 0.2500 0.5000
vt 0.5000 0.8750
vt 0.2500 0.5000
vt 0.5000 0.5000
vt 0.1250 0.8750
vt 0.3125 0.5000
vt 0.3125 0.7500
vt 0.2500 0.5000
vt 0.5000 0.8750
vt 0.2500 0.5000
vn 0.0000 0.0000 -1.0000
vn 1.0000 0.0000 0.0000
vn 0.0000 -1.0000 0.0000
vn 0.0000 1.0000 0.0000
vn -1.0000 -0.0000 -0.0000
vn 0.0000 0.0000 1.0000
s off
f 7/1/1 14/2/1 13/3/1
f 5/4/2 16/5/2 15/6/2
f 16/7/3 3/8/3 4/9/3
f 15/6/4 6/10/4 5/4/4
f 19/11/5 18/12/5 21/13/5
f 13/14/5 2/15/5 6/16/5
f 15/17/6 4/18/6 8/19/6
f 2/20/3 16/21/3 1/22/3
f 7/23/4 15/17/4 8/19/4
f 21/13/1 12/24/1 20/25/1
f 24/26/2 25/27/2 27/28/2
f 23/29/6 27/28/6 26/30/6
f 30/31/1 33/32/1 32/33/1
f 31/34/2 28/35/2 30/36/2
f 34/37/6 29/38/6 31/39/6
f 30/40/4 34/37/4 31/39/4
f 36/41/6 39/42/6 38/43/6
f 42/44/3 41/45/3 43/46/3
f 47/47/1 44/48/1 46/49/1
f 50/50/2 53/51/2 52/52/2
f 51/53/6 48/54/6 50/55/6
f 54/56/5 49/57/5 51/58/5
f 50/59/4 54/56/4 51/58/4
f 56/60/5 59/61/5 58/62/5
f 62/63/3 61/64/3 63/65/3
f 67/66/2 64/67/2 66/68/2
f 7/1/1 3/69/1 14/2/1
f 5/4/2 1/70/2 16/5/2
f 16/7/3 14/71/3 3/8/3
f 15/6/4 13/72/4 6/10/4
f 19/11/5 11/73/5 18/12/5
f 13/14/5 14/74/5 2/15/5
f 15/17/6 16/75/6 4/18/6
f 2/20/3 14/76/3 16/21/3
f 7/23/4 13/77/4 15/17/4
f 21/13/1 18/12/1 12/24/1
f 24/26/2 22/78/2 25/27/2
f 23/29/6 24/26/6 27/28/6
f 30/31/1 28/79/1 33/32/1
f 31/34/2 29/80/2 28/35/2
f 34/37/6 35/81/6 29/38/6
f 30/40/4 32/82/4 34/37/4
f 36/41/6 37/83/6 39/42/6
f 42/44/3 40/84/3 41/45/3
f 47/47/1 45/85/1 44/48/1
f 50/50/2 48/86/2 53/51/2
f 51/53/6 49/87/6 48/54/6
f 54/56/5 55/88/5 49/57/5
f 50/59/4 52/89/4 54/56/4
f 56/60/5 57/90/5 59/61/5
f 62/63/3 60/91/3 61/64/3
f 67/66/2 65/92/2 64/67/2
l 17 10
l 17 9
